<svg xmlns="http://www.w3.org/2000/svg" width="512" height="512" viewBox="0 0 512 512" version="1.1">
	<path d="M 321.500 188.016 C 317.650 188.497, 299.875 189.356, 282 189.926 C 216.297 192.020, 207.954 194.325, 166.062 221.959 C 156.093 228.535, 145.228 234.903, 141.918 236.110 C 137.056 237.883, 135.646 238.911, 134.582 241.459 C 133.365 244.371, 131.965 245.099, 116.382 250.918 C 85.898 262.302, 68.778 271.166, 64.274 277.898 C 62.486 280.569, 61.997 282.708, 61.988 287.898 C 61.976 294.315, 61.879 294.562, 58.542 296.724 C 52.962 300.337, 51.739 308.802, 54.165 327.020 C 55.279 335.390, 55.236 335.885, 53.165 338.518 C 50.241 342.234, 50.394 345.557, 53.582 347.646 C 55.814 349.108, 66.146 350.633, 75.824 350.929 C 77.189 350.971, 80.490 353.197, 83.824 356.324 C 86.946 359.253, 90.988 362.677, 92.808 363.933 C 94.627 365.190, 95.977 366.353, 95.808 366.517 C 95.638 366.681, 88.750 367.572, 80.500 368.496 C 64.015 370.342, 60.552 370.885, 61.189 371.523 C 62.354 372.687, 149.921 380.792, 195.833 383.985 C 220.878 385.727, 227.895 385.875, 243.833 385 C 267.480 383.701, 276.088 382.618, 292.387 378.889 C 299.599 377.239, 321.475 372.566, 341 368.505 C 360.525 364.443, 383.925 359.489, 393 357.497 C 402.075 355.504, 420.525 351.667, 434 348.970 C 447.475 346.273, 459.850 343.670, 461.500 343.187 L 464.500 342.307 460.500 341.685 C 458.300 341.342, 453.462 340.771, 449.750 340.414 C 446.038 340.058, 443 339.564, 443 339.317 C 443 339.069, 444.094 337.432, 445.431 335.679 C 448.648 331.462, 449.784 328.278, 451.101 319.784 C 451.881 314.757, 453.040 311.547, 455.103 308.700 C 459.561 302.545, 460.090 299.123, 459.002 283.449 C 458.197 271.856, 457.475 267.884, 454.725 259.933 L 451.416 250.365 437.958 237.354 C 410.848 211.143, 402.983 204.579, 392 198.993 C 385.388 195.630, 371.811 191.233, 362.582 189.466 C 352.769 187.586, 331.067 186.820, 321.500 188.016 M 332.270 192.054 C 317.852 194.900, 306.009 206.689, 290.590 233.548 C 287.447 239.022, 284.453 244.175, 283.936 245 C 282.584 247.155, 280.895 251.230, 281.222 251.548 C 281.375 251.696, 284.521 251.573, 288.214 251.275 L 294.928 250.732 296.583 245.616 C 299.101 237.827, 308.439 220.312, 314.106 212.746 C 320.456 204.269, 328.040 198.753, 336.491 196.465 C 349.853 192.848, 374.976 196.541, 391.804 204.596 C 397.536 207.340, 401.205 210.033, 406.183 215.148 C 413.067 222.223, 419.316 231.417, 420.528 236.250 L 421.217 239 415.618 239 C 409.713 239, 379.768 241.911, 379.123 242.548 C 378.412 243.251, 384.500 256.235, 385.776 256.734 C 387.359 257.354, 418.125 252.984, 419.500 251.944 C 420.050 251.528, 422.664 250.865, 425.310 250.471 C 428.964 249.927, 429.984 249.402, 429.556 248.285 C 429.245 247.476, 428.733 245.619, 428.417 244.157 L 427.842 241.500 429.905 244 C 431.039 245.375, 432.230 247.287, 432.551 248.250 C 432.872 249.213, 434.117 250.007, 435.317 250.015 C 436.864 250.026, 437.118 250.273, 436.189 250.862 C 435.468 251.319, 434.424 254.970, 433.869 258.976 C 433.314 262.982, 431.767 270.033, 430.430 274.645 C 429.094 279.257, 428 283.295, 428 283.619 C 428 283.942, 429.591 282.811, 431.535 281.104 C 434.247 278.722, 436.014 278, 439.131 278 C 447.241 278, 452.427 283.689, 454.229 294.561 C 455.033 299.415, 455.567 300.798, 456.106 299.422 C 457.181 296.678, 457.127 276.252, 456.031 271.527 C 455.054 267.312, 452.481 264.651, 450 265.291 C 448.952 265.561, 448.469 264.849, 448.398 262.926 C 448.342 261.412, 447.217 257.997, 445.898 255.337 C 444.037 251.584, 442.828 250.358, 440.500 249.868 C 438.850 249.521, 438.288 249.183, 439.250 249.118 C 440.361 249.043, 441 248.182, 441 246.759 C 441 243.969, 413.656 216.700, 403.840 209.701 C 395.052 203.436, 384.450 198.630, 372.654 195.565 C 356.659 191.409, 341.996 190.134, 332.270 192.054 M 224.500 212.033 C 219.550 213.074, 213.475 214.684, 211 215.611 C 196.496 221.042, 168 238.719, 168 242.286 C 168 243.241, 207.544 242.360, 219.798 241.131 L 226.097 240.500 228.387 234 C 229.646 230.425, 232.549 223.797, 234.838 219.272 C 237.127 214.747, 239 210.809, 239 210.522 C 239 209.560, 233.574 210.125, 224.500 212.033 M 265 215.927 C 265 219.833, 261.398 222.557, 255.135 223.388 C 250.534 223.998, 250.093 224.310, 248.614 228.006 C 247.742 230.186, 246.729 233.841, 246.363 236.130 L 245.698 240.290 257.099 239.559 C 275.940 238.350, 276.281 238.241, 277.785 232.988 C 280.782 222.519, 282.284 217.429, 282.698 216.348 C 283.209 215.011, 274.951 213, 268.951 213 C 265.249 213, 265 213.185, 265 215.927 M 357.554 216.500 C 357.845 218.700, 358.550 223.317, 359.121 226.760 C 360.814 236.967, 359.601 236.017, 357.029 225.122 L 354.639 215 348.570 215.014 C 338.876 215.035, 338 215.498, 338 220.598 C 338 224.531, 338.271 225.027, 340.750 225.624 C 345.543 226.778, 352.886 230.918, 354.073 233.136 C 354.702 234.312, 354.981 236.731, 354.692 238.512 L 354.166 241.750 358.305 240.820 C 360.581 240.309, 362.628 239.705, 362.855 239.479 C 363.471 238.863, 360.258 222.165, 358.530 217 L 357.024 212.500 357.554 216.500 M 400 214.422 C 400 216.078, 408.420 235, 409.157 235 C 409.642 235, 409.746 233.762, 409.388 232.250 C 407.904 225.973, 400 210.963, 400 214.422 M 378.616 224.637 C 380.549 230.062, 382.440 234.769, 382.816 235.097 C 384.096 236.214, 404.002 234.837, 403.965 233.634 C 403.945 233.010, 402.455 229.575, 400.653 226 C 396.694 218.144, 393.824 216.450, 382.800 215.464 L 375.099 214.774 378.616 224.637 M 283.949 218.634 C 283.398 220.082, 282.418 224.356, 281.771 228.131 C 280.814 233.709, 280.842 235.228, 281.922 236.247 C 282.730 237.009, 283.397 237.108, 283.626 236.500 C 283.832 235.950, 286.251 231.718, 289.001 227.096 C 291.750 222.474, 294 218.581, 294 218.444 C 294 217.996, 287.734 216, 286.326 216 C 285.569 216, 284.500 217.185, 283.949 218.634 M 329.021 231.054 C 323.067 233.578, 321.195 237.964, 325.166 240.089 C 329.243 242.271, 348.701 238.489, 349.737 235.314 C 350.899 231.752, 335.058 228.495, 329.021 231.054 M 364.625 243.556 C 359.194 244.293, 351.769 245.645, 348.125 246.561 C 344.235 247.539, 335.942 248.390, 328.040 248.623 C 320.637 248.842, 314.144 249.456, 313.610 249.990 C 312.404 251.196, 314.306 266.706, 315.850 268.250 C 317.388 269.788, 362.179 262.355, 367.500 259.678 C 369.953 258.444, 373.627 257.634, 377 257.583 C 381.912 257.509, 382.468 257.286, 382.197 255.500 C 381.751 252.561, 376.664 242.608, 375.500 242.398 C 374.950 242.298, 370.056 242.820, 364.625 243.556 M 276.826 247.507 C 276.547 247.786, 249.810 248.251, 217.410 248.540 C 185.009 248.830, 150.400 249.423, 140.500 249.860 L 122.500 250.653 110.892 255.238 C 97.962 260.344, 91.378 263.529, 85.633 267.456 C 83.506 268.909, 81.538 269.871, 81.259 269.592 C 80.583 268.916, 73.676 272.480, 72.189 274.272 C 71.542 275.052, 70.745 277.023, 70.420 278.651 C 69.245 284.524, 69.062 284.500, 114.386 284.500 L 155.463 284.500 161.296 280.730 C 175.490 271.556, 195.221 263.445, 221.123 256.136 C 240.844 250.570, 244.740 249.593, 243.913 250.420 C 243.593 250.741, 237.519 252.592, 230.415 254.534 C 204.236 261.690, 179.844 271.357, 166.554 279.842 C 160.392 283.777, 161.758 283.861, 170.645 280.095 C 185.657 273.734, 209.165 267.797, 252.500 259.421 C 277.583 254.573, 277.607 254.565, 278.907 250.837 C 279.508 249.113, 280 247.544, 280 247.351 C 280 246.808, 277.397 246.937, 276.826 247.507 M 304.883 250.451 C 304.635 250.698, 299.313 251.413, 293.057 252.038 C 285.042 252.840, 280.916 253.719, 279.091 255.014 C 277.494 256.146, 271.512 257.690, 263.500 259.036 C 249.882 261.324, 246.917 262.213, 248.872 263.421 C 249.492 263.804, 250 265.485, 250 267.156 C 250 269.536, 248.601 271.643, 243.544 276.882 L 237.087 283.570 240.294 286.110 C 244.255 289.250, 251.726 293.561, 254.790 294.476 C 256.570 295.008, 257.991 294.337, 261.170 291.465 C 273.112 280.676, 284.817 280.784, 295.830 291.783 C 303.801 299.744, 307.952 312.882, 307.983 330.250 C 308.001 340.762, 308.167 341.028, 313.435 339.025 L 316 338.050 315.991 322.775 C 315.984 308.777, 314.916 290.799, 313.469 280.291 L 312.890 276.082 305.195 275.791 L 297.500 275.500 305.340 273 L 313.180 270.500 312.561 267 C 312.221 265.075, 311.665 260.462, 311.326 256.750 C 310.732 250.243, 310.613 250, 308.022 250 C 306.543 250, 305.131 250.203, 304.883 250.451 M 425.250 252.706 C 422.792 253.179, 422.132 255, 424.418 255 C 426.587 255, 429 253.890, 429 252.893 C 429 252.402, 428.663 252.061, 428.250 252.136 C 427.837 252.211, 426.488 252.467, 425.250 252.706 M 401.500 256.589 C 396.550 257.339, 391.038 258.208, 389.250 258.521 L 386 259.091 385.937 268.795 C 385.902 274.133, 385.456 282.325, 384.946 287 C 383.376 301.372, 382.690 314.630, 383.375 317.358 L 384.027 319.957 396.764 319.464 L 409.500 318.971 401 320.899 C 391.134 323.136, 360.750 329.814, 330.012 336.501 C 318.194 339.072, 308.182 341.388, 307.762 341.647 C 307.343 341.906, 307 343.216, 307 344.559 C 307 347.471, 308.017 347.569, 316.214 345.445 C 319.515 344.589, 335.330 341.233, 351.358 337.986 C 387.367 330.692, 405.842 326.511, 410.313 324.642 C 413.392 323.356, 413.965 322.461, 415.933 315.855 C 417.139 311.810, 420.835 299.950, 424.146 289.500 C 429.858 271.475, 433.356 258.022, 432.542 257.209 C 432.338 257.005, 431.262 257.324, 430.151 257.919 C 426.966 259.624, 422.488 259.197, 420.500 257 C 418.369 254.645, 414.851 254.569, 401.500 256.589 M 371.413 260.943 C 366.849 262.034, 365.464 263.051, 367.135 264.083 C 369.242 265.386, 380.434 262.510, 379.450 260.919 C 378.800 259.867, 375.878 259.875, 371.413 260.943 M 342 268.510 C 314.555 274.989, 316 274.426, 316 278.644 C 316 280.604, 316.440 288.573, 316.977 296.354 C 317.515 304.134, 318.238 316.278, 318.583 323.339 C 319.197 335.882, 319.261 336.162, 321.356 335.508 C 322.535 335.139, 336.483 331.583, 352.351 327.606 L 381.202 320.376 381.411 308.938 C 381.526 302.647, 382.205 290.162, 382.919 281.192 C 383.633 272.223, 383.989 264.655, 383.708 264.375 C 383.428 264.095, 380.919 265.021, 378.133 266.433 C 371.805 269.639, 369.543 269.651, 365.411 266.500 C 363.608 265.125, 361.766 264.032, 361.317 264.071 C 360.868 264.111, 352.175 266.108, 342 268.510 M 302.570 266.887 C 301.889 267.988, 304.438 270.229, 305.342 269.325 C 305.704 268.963, 306 268.067, 306 267.333 C 306 265.844, 303.422 265.508, 302.570 266.887 M 116.500 268.837 C 113.138 270.887, 107 277.517, 107 279.099 C 107 280.322, 112.623 277.261, 119.287 272.411 C 125.859 267.628, 123.482 264.579, 116.500 268.837 M 231.161 268.602 C 222.266 270.093, 217.342 271.913, 222.051 271.970 C 225.038 272.005, 241.904 268.429, 242.753 267.580 C 243.583 266.751, 240.670 267.007, 231.161 268.602 M 78.872 271.750 C 77.629 273.336, 77.664 273.371, 79.250 272.128 C 80.916 270.821, 81.445 270, 80.622 270 C 80.415 270, 79.627 270.788, 78.872 271.750 M 232.217 271.971 C 224.423 273.857, 222.854 274.674, 224.759 275.851 C 225.628 276.388, 225.226 277.687, 223.306 280.547 C 219.322 286.480, 217.077 287.557, 218.947 282.639 C 221.139 276.873, 216.154 272.186, 209.214 273.488 C 204.766 274.322, 203.259 277.585, 204.858 282.919 C 205.691 285.702, 206.829 287.151, 208.767 287.898 C 210.912 288.724, 209.024 288.926, 200 288.834 C 191.301 288.746, 187.404 289.137, 184 290.441 C 180.366 291.833, 178.804 291.956, 175.884 291.082 C 173.895 290.487, 171.420 290.016, 170.384 290.035 C 168.812 290.065, 168.914 290.307, 171 291.500 C 174.040 293.238, 182.831 293.428, 186.685 291.840 C 188.233 291.202, 194 290.591, 199.500 290.482 C 206.706 290.340, 210.618 289.776, 213.500 288.463 C 215.700 287.461, 218.263 286.746, 219.196 286.874 C 222.241 287.293, 230.764 281.898, 241 273.072 C 244.403 270.138, 244.431 270.056, 242 270.131 C 240.625 270.173, 236.222 271.001, 232.217 271.971 M 208.250 275.099 C 203.828 276.743, 205.984 285, 210.835 285 C 214.320 285, 216 283.348, 216 279.922 C 216 275.917, 212.280 273.601, 208.250 275.099 M 65.607 279.582 C 64.658 282.054, 64.895 286.817, 66 287.500 C 66.616 287.881, 67 286.177, 67 283.059 C 67 277.799, 66.638 276.895, 65.607 279.582 M 272.994 279.934 C 268.796 281.211, 264.601 283.674, 262.498 286.096 L 260.500 288.396 264 286.132 C 270.604 281.860, 274.168 280.767, 279.970 281.234 C 285.204 281.655, 285.339 281.610, 282.500 280.385 C 279.133 278.932, 276.672 278.815, 272.994 279.934 M 183.166 283.876 C 182.103 284.550, 182.172 284.852, 183.506 285.364 C 185.352 286.072, 187 285.401, 187 283.941 C 187 282.778, 184.953 282.743, 183.166 283.876 M 192 283.883 C 192 284.805, 196.120 286.214, 196.806 285.527 C 197.023 285.310, 196.904 284.653, 196.541 284.067 C 195.748 282.783, 192 282.632, 192 283.883 M 230.948 288.465 C 224.806 291.665, 214.994 293.564, 189.211 296.539 C 171.647 298.566, 162.915 300.180, 143.500 304.986 C 130.300 308.254, 115.289 312.257, 110.143 313.882 C 101.664 316.559, 100.443 316.715, 97.123 315.543 C 90.191 313.098, 74.491 304.779, 69.263 300.781 C 65.429 297.850, 63.414 296.930, 61.743 297.350 C 57.639 298.380, 55.323 301.509, 54.593 307.010 C 53.777 313.165, 55.004 315.603, 60.688 319.116 C 64.871 321.701, 59.640 321.329, 129.500 324.011 L 160.500 325.201 173 322.656 C 179.875 321.257, 188.875 319.658, 193 319.104 C 214.107 316.270, 216.640 316.532, 226.235 322.543 L 231.970 326.136 230.432 329.818 C 228.652 334.078, 224.642 338.582, 220.876 340.550 C 216.902 342.627, 207.379 343.867, 182.818 345.507 C 170.543 346.326, 156.675 347.444, 152 347.991 C 143.617 348.971, 136.551 349.212, 138.500 348.452 C 139.050 348.237, 142.875 347.653, 147 347.153 C 151.125 346.654, 158.233 345.235, 162.795 344.001 C 170.498 341.917, 170.979 341.635, 169.545 340.050 C 167.248 337.512, 167.624 335.781, 171.598 330.575 C 173.577 327.983, 175.038 325.705, 174.844 325.511 C 174.651 325.318, 171.119 325.844, 166.996 326.680 C 158.774 328.347, 156.604 329.835, 152.025 336.942 C 148.204 342.874, 146.530 343.801, 137.247 345.129 C 124.011 347.022, 80.132 344.622, 74.092 341.675 C 71.327 340.325, 71.125 340.005, 66.874 330.227 C 63.355 322.134, 62.145 321.135, 64.605 328.355 C 66.562 334.099, 66.024 334.949, 57.810 339.096 C 54.614 340.709, 52 342.686, 52 343.489 C 52 346.125, 57.720 348.226, 62.940 347.508 C 65.543 347.150, 75.059 347.552, 84.086 348.400 C 93.114 349.249, 109.950 350.648, 121.500 351.511 C 133.050 352.373, 147.829 353.736, 154.342 354.539 C 167.984 356.222, 216.972 356.514, 229 354.984 C 238.384 353.791, 240.553 351.758, 241.482 343.283 C 243.604 323.941, 247.385 308.968, 252.055 301.411 C 253.125 299.680, 254 297.762, 254 297.149 C 254 296.535, 251.637 294.837, 248.750 293.375 C 245.863 291.913, 242.108 289.655, 240.406 288.358 C 236.658 285.502, 236.633 285.503, 230.948 288.465 M 120.613 291.054 C 114.431 292.090, 111.514 294.545, 117.500 293.674 C 119.700 293.353, 126.112 292.782, 131.750 292.403 C 137.387 292.024, 142 291.328, 142 290.857 C 142 289.801, 127.280 289.937, 120.613 291.054 M 160.038 293.959 C 163.638 297.037, 165.482 297.647, 166.451 296.080 C 167.323 294.668, 162.054 291, 159.153 291 C 156.582 291, 156.585 291.008, 160.038 293.959 M 100 292.709 C 94.539 294.717, 93.314 300.529, 97.635 303.927 C 100.914 306.507, 102.630 306.523, 106.750 304.011 C 110.760 301.566, 111.059 297.969, 107.545 294.455 C 105.156 292.065, 103.066 291.582, 100 292.709 M 69.020 294.750 C 69.042 295.572, 89.191 302.142, 89.806 301.527 C 90.848 300.485, 74.511 294, 70.843 294 C 69.830 294, 69.009 294.337, 69.020 294.750 M 99.250 295.031 C 96.045 296.319, 96.198 300.677, 99.500 302.182 C 102.957 303.757, 107 301.892, 107 298.721 C 107 294.488, 104.071 293.093, 99.250 295.031 M 437.813 294.683 C 438.534 294.972, 439.397 294.936, 439.729 294.604 C 440.061 294.272, 439.471 294.036, 438.417 294.079 C 437.252 294.127, 437.015 294.364, 437.813 294.683 M 442 294.713 C 442.825 295.019, 444.175 295.771, 445 296.384 C 446.303 297.354, 446.320 297.271, 445.128 295.750 C 444.373 294.788, 443.023 294.036, 442.128 294.079 C 440.766 294.145, 440.745 294.249, 442 294.713 M 433.076 297.631 C 429.810 301.783, 428.704 307.596, 429.323 317.364 C 429.783 324.616, 430.350 326.931, 432.444 330.095 C 433.929 332.339, 436.131 334.246, 437.690 334.637 C 439.920 335.197, 440.838 334.758, 443.090 332.062 C 446.056 328.508, 447.339 324.125, 445.917 322.404 C 445.419 321.802, 443.209 320.496, 441.006 319.503 C 438.803 318.509, 437 317.315, 437 316.848 C 437 315.511, 438.014 315.818, 442.741 318.588 C 447.676 321.481, 448.539 321.284, 447.585 317.482 C 447.154 315.765, 445.881 314.506, 443.865 313.803 L 440.800 312.735 443.358 310.617 C 447.276 307.375, 447.646 303.921, 444.480 300.158 C 441.069 296.105, 437.010 295.901, 434.073 299.635 C 432.933 301.084, 432 301.820, 432 301.270 C 432 300.720, 432.933 299.084, 434.073 297.635 C 435.212 296.186, 435.920 295, 435.645 295 C 435.370 295, 434.214 296.184, 433.076 297.631 M 135.500 296.659 C 126.118 297.785, 113.935 300.329, 114.659 301.012 C 115.474 301.782, 152.871 297.462, 153.848 296.485 C 154.382 295.952, 140.285 296.086, 135.500 296.659 M 436.200 301.200 C 434.523 302.877, 434.702 304.328, 436.500 303.638 C 438.704 302.793, 438.332 304.162, 435.541 307.172 C 433.456 309.421, 433.299 310.003, 434.508 311.006 C 435.291 311.657, 436.510 311.957, 437.216 311.673 C 438.023 311.349, 437.850 311.129, 436.750 311.079 C 435.788 311.036, 435 310.600, 435 310.111 C 435 309.622, 435.722 309.285, 436.605 309.361 C 438.606 309.534, 444.460 302.554, 443.550 301.081 C 442.651 299.626, 437.694 299.706, 436.200 301.200 M 264.980 307.758 C 258.507 311.920, 253.608 318.104, 251.586 324.667 C 250.989 326.604, 251.517 327.008, 256.566 328.476 C 263.501 330.492, 263.341 331.164, 256.276 329.699 C 253.402 329.103, 250.702 328.965, 250.276 329.393 C 249.849 329.821, 249.500 334.970, 249.500 340.835 C 249.500 350.632, 249.721 351.875, 252.212 356.113 C 259.690 368.834, 271.237 372.273, 282.475 365.126 C 286.808 362.371, 293 355.194, 293 352.927 C 293 352.502, 291.313 351.609, 289.250 350.942 C 283.210 348.989, 277.996 346.064, 274.893 342.891 C 271.751 339.677, 271.342 338.058, 273.200 336.200 C 275.067 334.333, 276.173 334.780, 275.796 337.250 C 275.589 338.605, 274.865 339.377, 273.976 339.190 C 270.182 338.392, 279.353 345.301, 286.233 348.424 L 293.965 351.934 295.112 349.791 C 297.142 345.998, 297.386 335.839, 295.595 329.678 C 294.687 326.555, 293.844 324.006, 293.722 324.013 C 291.515 324.141, 279.822 328.648, 275.785 330.926 C 270.999 333.627, 270.018 333.844, 266.709 332.930 C 261.749 331.560, 262.012 330.909, 267.250 331.593 C 270.877 332.066, 272.643 331.550, 279.304 328.073 C 283.596 325.833, 288.182 324, 289.495 324 C 293.361 324, 293.216 322.527, 288.862 317.580 C 281.843 309.607, 274.262 307.192, 266.468 310.449 C 262.127 312.263, 261.939 311.600, 266.173 309.410 C 270.561 307.142, 277.765 307.329, 282.688 309.841 C 286.498 311.785, 288.986 314.173, 293.313 320.041 C 294.310 321.394, 293.813 320.025, 292.209 317 C 288.230 309.497, 282.830 305.751, 275.255 305.240 C 270.238 304.902, 268.920 305.225, 264.980 307.758 M 430 315.345 C 430 317.905, 430.398 320, 430.885 320 C 431.763 320, 435.462 314.986, 434.830 314.653 C 434.648 314.557, 433.488 313.626, 432.250 312.584 L 430 310.690 430 315.345 M 268.152 312.885 C 267.064 313.574, 267.006 315.046, 267.854 320.489 C 268.432 324.201, 269.130 327.463, 269.406 327.739 C 269.681 328.015, 270.940 327.975, 272.203 327.651 C 274.895 326.960, 283.089 320.047, 281.250 320.019 C 280.563 320.009, 280 319.133, 280 318.073 C 280 313.963, 271.987 310.454, 268.152 312.885 M 259.885 315.895 C 257.025 318.169, 253.659 323.676, 254.734 324.324 C 255.155 324.578, 257.075 325.235, 259 325.785 C 260.925 326.334, 263.288 327.105, 264.250 327.499 C 265.712 328.096, 265.998 327.662, 265.989 324.857 C 265.970 319.133, 264.795 314, 263.504 314 C 262.825 314, 261.197 314.853, 259.885 315.895 M 434.230 325.529 L 431.959 329.034 434.545 330.017 C 439.257 331.809, 442.275 328.487, 440.393 323.582 C 439.383 320.950, 436.633 321.820, 434.230 325.529 M 202.571 327.571 C 200.431 329.712, 200.598 332.598, 203 335 C 206.674 338.674, 211 336.974, 211 331.857 C 211 330.155, 210.156 328.522, 208.777 327.557 C 205.971 325.591, 204.549 325.594, 202.571 327.571 M 203.011 329.487 C 202.332 330.305, 202.050 331.689, 202.385 332.562 C 202.939 334.006, 203.136 334.007, 204.569 332.574 C 206.541 330.601, 207.383 330.558, 206.651 332.468 C 206.341 333.275, 206.587 334.245, 207.198 334.622 C 207.839 335.019, 208.030 334.857, 207.648 334.240 C 207.285 333.652, 207.447 333.018, 208.009 332.830 C 209.138 332.454, 206.424 328, 205.066 328 C 204.614 328, 203.689 328.669, 203.011 329.487 M 281.750 331.068 C 278.591 332.736, 278 333.560, 278 336.301 C 278 340.817, 280.460 344, 283.950 344 C 287.402 344, 288 342.658, 288 334.918 C 288 328.265, 287.566 327.998, 281.750 331.068 M 391 332.024 C 382.475 333.563, 371.675 335.695, 367 336.762 L 358.500 338.703 369 339.370 C 374.775 339.736, 387.627 340.140, 397.559 340.268 L 415.618 340.500 411.559 334.804 C 409.327 331.671, 407.275 329.135, 407 329.167 C 406.725 329.200, 399.525 330.486, 391 332.024 M 250.201 339.916 C 250.715 348.788, 252.676 353.009, 256.273 352.985 C 258.094 352.972, 258.227 352.787, 257 351.966 C 255.697 351.095, 255.737 350.824, 257.310 349.898 C 261.230 347.592, 266 342.699, 266 340.985 C 266 338.546, 260.786 334.312, 256.219 333.044 C 249.645 331.218, 249.695 331.162, 250.201 339.916 M 267.141 335.500 C 267.141 336.600, 267.527 338.400, 268 339.500 L 268.859 341.500 268.859 339.500 C 268.859 338.400, 268.473 336.600, 268 335.500 L 267.141 333.500 267.141 335.500 M 74 337.028 C 74 339.531, 125.777 342.360, 131 340.142 C 132.920 339.326, 131.645 339.212, 125.500 339.650 C 117.528 340.217, 88.844 338.645, 79.117 337.108 C 76.303 336.663, 74 336.627, 74 337.028 M 267 347.196 C 265.075 348.883, 264.175 349.911, 265 349.480 C 265.825 349.049, 267.288 348.019, 268.250 347.193 C 269.833 345.834, 270 345.877, 270 347.649 C 270 350.290, 264.645 358.585, 262.039 359.979 C 255.802 363.317, 268.793 364.247, 275.603 360.950 C 283.071 357.335, 283.123 356.636, 276.426 350 L 270.500 344.128 267 347.196 M 132.462 361.125 L 127.500 366.250 135 365.639 C 142.810 365.003, 165.985 361.349, 166.692 360.641 C 167.315 360.019, 144.973 355.980, 140.962 355.991 C 138.024 355.998, 136.585 356.868, 132.462 361.125" stroke="none" fill="black" fill-rule="evenodd"/>
</svg>